<?xml version="1.0" encoding="UTF-8"?>
<svg width="128" height="128" viewBox="0 0 128 128" xmlns="http://www.w3.org/2000/svg">
  <!-- Background circle -->
  <circle cx="64" cy="64" r="60" fill="#4285f4" />
  
  <!-- Inner circle (screen/filter representation) -->
  <circle cx="64" cy="64" r="48" fill="#3367d6" />
  
  <!-- Binary/bit elements -->
  <g fill="white" opacity="0.9">
    <!-- Binary streams -->
    <rect x="30" y="42" width="12" height="6" rx="2" />
    <rect x="46" y="42" width="6" height="6" rx="2" />
    <rect x="56" y="42" width="12" height="6" rx="2" />
    <rect x="72" y="42" width="6" height="6" rx="2" />
    <rect x="82" y="42" width="12" height="6" rx="2" />
    
    <rect x="30" y="54" width="6" height="6" rx="2" />
    <rect x="40" y="54" width="12" height="6" rx="2" />
    <rect x="56" y="54" width="6" height="6" rx="2" />
    <rect x="66" y="54" width="12" height="6" rx="2" />
    <rect x="82" y="54" width="6" height="6" rx="2" />
    
    <rect x="30" y="66" width="12" height="6" rx="2" />
    <rect x="46" y="66" width="6" height="6" rx="2" />
    <rect x="56" y="66" width="12" height="6" rx="2" />
    <rect x="72" y="66" width="6" height="6" rx="2" />
    <rect x="82" y="66" width="12" height="6" rx="2" />
    
    <rect x="30" y="78" width="6" height="6" rx="2" />
    <rect x="40" y="78" width="12" height="6" rx="2" />
    <rect x="56" y="78" width="6" height="6" rx="2" />
    <rect x="66" y="78" width="12" height="6" rx="2" />
    <rect x="82" y="78" width="6" height="6" rx="2" />
  </g>
  
  <!-- Screen/filter overlapping element -->
  <path d="M64,20 
           A44,44 0 0,1 108,64 
           A44,44 0 0,1 64,108 
           A44,44 0 0,1 20,64 
           A44,44 0 0,1 64,20 Z" 
        fill="none" 
        stroke="white" 
        stroke-width="4" 
        stroke-dasharray="6,3" />
  
  <!-- Central filter icon -->
  <g transform="translate(64, 64) scale(0.4)">
    <path d="M-30,-50 L30,-50 L15,0 L-15,0 Z" fill="white" />
    <path d="M-15,0 L15,0 L15,50 L-15,50 Z" fill="white" />
  </g>
</svg>